<?xml version="1.0" encoding="utf-8"?>
<!-- Generator: Adobe Illustrator 27.2.0, SVG Export Plug-In . SVG Version: 6.00 Build 0)  -->
<svg version="1.1" id="Layer_2_00000042734343929091463580000013158939826106953623_"
	 xmlns="http://www.w3.org/2000/svg" xmlns:xlink="http://www.w3.org/1999/xlink" x="0px" y="0px" viewBox="0 0 490.8 302.9"
	 style="enable-background:new 0 0 490.8 302.9;" xml:space="preserve">
<style type="text/css">
	.st0{fill:#19A883;}
	.st1{fill:#8EA098;}
</style>
<g id="Layer_1-2">
	<g>
		<g>
			<g>
				<path class="st0" d="M339.8,1.5c-38.5-7.4-99.3,12.6-91.1,53.7c19.4,11.7,31.9,31.1,39.8,51.6c1.2,2,4.3,1.1,4.3-1.2
					c3.1-33.4-14.5-80.3,35.3-71.4c1,0.1,1.9-0.4,2.3-1.2c3.2-6.1,8.7-24.8,10.7-29.3C341.5,2.7,340.8,1.7,339.8,1.5L339.8,1.5
					L339.8,1.5z M294.8,163.3c-7,18.9-22,36.3-44.5,51.3c-2.2,1.5-0.9,14.1-1,13.6c0.1,0.8,0.8,1.9,1.9,1.9c0,0,47.6,1.9,47.3-1.9
					v-64.3C298.5,158.6,297.5,157,294.8,163.3L294.8,163.3L294.8,163.3z"/>
				<path class="st0" d="M292.3,121l2.6,24c0.4,3.3,4.3,4.8,6.8,2.6l26-22.6c2.7-2.3,1.2-6.7-2.3-7l-28.2-2.1
					C294.4,115.7,292,118.1,292.3,121L292.3,121L292.3,121z"/>
			</g>
			<path class="st1" d="M248.9,152.3c-0.8,0.3-1.5,1-1.7,1.8c-2.8,12.1-10.2,21.3-28.7,27.6c-23,7.8-42.3-1.8-51.4-20.5
				c-0.7-1.4,0.1-3,1.5-3.5L280.3,120c1.3-0.4,2-1.8,1.6-3.1c-0.8-2.8-1.5-4.9-2.3-7.3c-12.5-36.9-47.5-68.8-103.5-49.9
				c-40.3,13.6-59.1,44.4-57.9,77.4c0.1,1.7,1.8,2.9,3.4,2.3l33.6-11.3c1.1-0.4,1.9-1.5,1.8-2.7c-0.8-15.2,6.4-29.8,28.7-37.3
				c26.9-9.1,40.4,4.8,46.6,16.9c0.7,1.4,0,3.1-1.4,3.6l-56.5,19.1l-0.5,0.2l-12.3,4.1l-3.5,1.2L119,146.4v0.2
				c0.8,5.4,2.1,10.7,3.9,16.1c12.6,37.2,48,68.6,105.2,49.3c43.5-14.7,57.8-42.7,59.2-69c0.1-1.8-1.7-3.1-3.4-2.5L248.9,152.3
				L248.9,152.3L248.9,152.3z"/>
		</g>
		<g>
			<g>
				<path class="st0" d="M30,291.7v9.2H0v-49.8h29.3v9.2H8.9v10.8h18v9h-18v11.5L30,291.7L30,291.7z"/>
				<path class="st0" d="M56.4,300.9l-6.9-12.8l-6.9,12.8h-10l12-20.7L33,260.1h9.9l6.7,12.1l6.7-12.1h9.6l-11.5,19.8l12.1,21
					L56.4,300.9L56.4,300.9z"/>
				<path class="st0" d="M96.6,292.3v8.6H70.9V260H96v8.6H79.5v7.5H94v8.2H79.5v8L96.6,292.3L96.6,292.3z"/>
				<path class="st0" d="M100.5,280.5c0-12.3,7.6-21.3,17.8-21.3c6,0,10.5,2.2,13.8,7.5l-5.7,6.6c-2.2-3.3-4.8-4.9-7.8-4.9
					c-5.4,0-9.3,4.8-9.3,12.1s3.9,12,9.3,12c3,0,5.6-1.6,7.8-4.9l5.7,6.6c-3.3,5.3-7.8,7.5-13.8,7.5
					C108.1,301.7,100.5,292.8,100.5,280.5L100.5,280.5L100.5,280.5z"/>
				<path class="st0" d="M137.2,283.3v-23.2h8.8V283c0,6.3,2.2,9.6,6.4,9.6s6.3-3.3,6.3-9.6v-22.9h8.6v23.2
					c0,11.4-5.6,18.4-15.1,18.4S137.2,294.7,137.2,283.3L137.2,283.3z"/>
				<path class="st0" d="M181.6,268.8h-10v-8.7h28.8v8.7h-10V301h-8.8V268.8L181.6,268.8z"/>
				<path class="st0" d="M204.9,260.1h8.8V301h-8.8V260.1z"/>
				<path class="st0" d="M254,260.1L240.1,301h-8.6l-13.9-40.9h9.3l9.1,27.8l9.3-27.8H254L254,260.1z"/>
				<path class="st0" d="M283.7,292.3v8.6H258V260h25.1v8.6h-16.4v7.5h14.5v8.2h-14.5v8L283.7,292.3L283.7,292.3z"/>
			</g>
			<g>
				<path class="st1" d="M302.7,261.6v13.1h18v9.2h-18V302h-9v-49.8H323v9.2h-20.3V261.6L302.7,261.6z"/>
				<path class="st1" d="M326.1,281.7c0-12.3,7.6-21.3,17.9-21.3s17.9,9,17.9,21.3s-7.6,21.2-17.9,21.2S326.1,294,326.1,281.7z
					 M353.1,281.7c0-7-3.8-12.1-9-12.1s-9.1,5-9.1,12.1s3.9,12,9.1,12S353.1,288.7,353.1,281.7z"/>
				<path class="st1" d="M382.3,291.2h-5.4v11h-8.8v-40.9h14.5c8.8,0,14.4,5.6,14.4,15.1c0,6-2.4,10.5-6.5,12.9l7.1,12.9h-9.4
					L382.3,291.2L382.3,291.2z M382.1,270h-5.2v12.7h5.2c4.1,0,6.1-2.4,6.1-6.3S386.2,270,382.1,270L382.1,270L382.1,270z"/>
				<path class="st1" d="M429.6,293.5v8.6h-25.7v-40.9H429v8.6h-16.4v7.5h14.5v8.2h-14.5v8L429.6,293.5L429.6,293.5z"/>
				<path class="st1" d="M433.1,298.5l3-8.3c2.8,2.4,6.9,4,10.9,4s5.3-1.6,5.3-3.6c0-6.9-18.5-1.5-18.5-17c0-7.7,5.4-13.1,14.3-13.1
					c4,0,8.4,1.1,11.5,3.5l-2.8,8.3c-2.9-2.3-6-3.1-9-3.1c-3.8,0-5.3,1.6-5.3,3.8c0,6.7,18.5,1.6,18.5,16.7
					c0,7.8-5.2,13.2-14.4,13.2C441.4,302.9,436.1,301.2,433.1,298.5L433.1,298.5z"/>
				<path class="st1" d="M472,270h-10v-8.7h28.8v8.7h-10v32.1H472V270L472,270z"/>
			</g>
		</g>
	</g>
</g>
</svg>
