<?xml version="1.0" standalone="no"?>
<!DOCTYPE svg PUBLIC "-//W3C//DTD SVG 20010904//EN"
 "http://www.w3.org/TR/2001/REC-SVG-20010904/DTD/svg10.dtd">
<svg version="1.0" xmlns="http://www.w3.org/2000/svg"
 width="982.000000pt" height="982.000000pt" viewBox="0 0 982.000000 982.000000"
 preserveAspectRatio="xMidYMid meet">
<metadata>
Created by potrace 1.14, written by Peter Selinger 2001-2017
</metadata>
<g transform="translate(0.000000,982.000000) scale(0.100000,-0.100000)"
fill="#000000" stroke="none">
<path d="M6279 7935 c-2 -2 -31 -6 -64 -10 -92 -9 -124 -15 -205 -32 -41 -10
-77 -18 -80 -18 -148 -30 -456 -153 -508 -202 -7 -7 -18 -13 -23 -13 -5 0 -15
-4 -22 -10 -7 -5 -44 -35 -84 -65 -148 -111 -249 -245 -297 -391 -28 -86 -29
-95 -29 -222 l0 -123 34 -29 c19 -16 38 -29 43 -30 19 -1 148 -110 241 -206
117 -120 107 -107 232 -280 39 -53 185 -321 198 -364 5 -17 38 -90 53 -119 22
-45 62 -53 82 -16 16 30 19 299 5 570 -19 383 -4 537 66 680 59 121 142 181
292 210 67 13 230 13 297 0 19 -4 42 -8 50 -10 27 -5 47 14 69 64 31 72 44
105 46 116 3 10 67 196 126 365 33 96 30 107 -37 116 -21 3 -50 8 -64 10 -29
6 -416 14 -421 9z"/>
<path d="M4010 6852 c-138 -11 -446 -83 -544 -126 -17 -7 -47 -19 -66 -26
-124 -46 -330 -163 -455 -259 -71 -54 -245 -224 -245 -239 0 -6 -3 -12 -8 -14
-20 -9 -179 -248 -183 -276 0 -4 -9 -25 -19 -47 -52 -117 -107 -318 -116 -425
-3 -30 -6 -99 -8 -153 -2 -81 0 -103 14 -120 16 -20 21 -20 66 -9 54 14 62 16
84 25 8 3 78 27 155 52 77 26 147 49 155 53 8 3 17 6 20 7 53 13 261 89 268
98 5 7 12 57 15 112 4 55 9 110 12 123 3 12 7 32 10 44 6 28 54 137 65 148 3
3 11 17 18 31 20 38 120 140 177 179 28 19 52 37 55 40 10 11 179 90 192 90 8
0 18 4 23 9 10 8 122 41 160 47 11 1 48 7 82 12 82 11 195 6 269 -13 136 -35
286 -138 360 -247 16 -24 32 -45 35 -48 13 -10 49 -90 49 -108 0 -29 -27 -46
-125 -78 -49 -15 -92 -29 -95 -30 -3 0 -12 -4 -20 -7 -18 -8 -398 -136 -420
-142 -8 -2 -79 -27 -158 -54 -78 -27 -144 -50 -145 -50 -1 0 -9 -2 -17 -5 -97
-31 -148 -48 -160 -53 -8 -4 -18 -7 -22 -8 -5 -2 -9 -3 -11 -4 -7 -3 -924
-312 -937 -316 -75 -19 -154 -54 -156 -68 -1 -9 4 -43 11 -75 8 -33 16 -70 19
-83 2 -13 9 -36 15 -51 6 -16 9 -28 7 -28 -2 0 7 -30 21 -67 14 -38 28 -80 33
-94 11 -36 104 -225 135 -274 14 -22 28 -47 32 -55 4 -8 11 -19 15 -25 5 -5
25 -32 45 -60 138 -185 333 -354 518 -448 220 -112 423 -156 695 -151 85 1
171 5 190 8 19 3 51 8 70 10 49 8 89 16 135 27 22 5 51 12 65 15 121 26 517
180 528 206 2 5 12 8 23 8 10 0 19 5 19 10 0 6 4 10 9 10 12 0 110 60 135 83
11 9 24 17 30 17 5 0 16 7 25 15 9 8 42 36 74 62 78 62 172 158 235 238 50 63
172 275 172 298 0 2 7 21 15 41 8 20 15 38 16 41 0 3 6 23 14 46 9 23 17 51
20 63 6 28 13 65 21 101 17 79 24 205 12 228 -5 9 -19 17 -31 17 -13 0 -124
-34 -248 -76 -123 -41 -231 -77 -239 -79 -8 -2 -71 -24 -140 -47 l-124 -43
-22 -70 c-22 -74 -67 -169 -90 -193 -8 -7 -14 -17 -14 -21 0 -10 -121 -131
-131 -131 -4 0 -14 -7 -22 -15 -21 -20 -129 -79 -214 -115 -132 -56 -246 -81
-378 -85 -312 -9 -562 137 -719 417 -32 57 -33 83 -3 102 18 12 408 149 457
161 8 2 83 27 165 55 176 60 169 57 175 58 3 0 23 7 45 15 44 16 67 24 75 25
3 0 30 10 60 22 30 12 62 23 70 25 8 2 76 24 150 50 74 26 142 48 150 50 8 3
121 41 250 85 129 45 242 83 250 85 62 16 390 131 408 143 29 19 28 43 -9 154
-127 384 -336 688 -609 888 -125 91 -366 204 -480 225 -45 8 -71 14 -88 19
-56 16 -317 27 -422 18z"/>
<path d="M5876 5592 c-29 -31 -29 -32 -22 -119 4 -48 9 -101 11 -118 4 -28 12
-105 20 -185 2 -19 7 -60 10 -90 14 -127 86 -148 189 -53 30 28 123 108 201
175 72 61 193 168 248 218 39 36 48 52 49 79 1 43 -38 80 -85 82 -18 1 -48 3
-67 4 -19 2 -78 6 -130 9 -52 4 -111 9 -130 11 -19 2 -87 7 -150 10 l-115 7
-29 -30z"/>
<path d="M5937 4742 c-9 -10 -29 -47 -43 -83 -117 -289 -306 -543 -579 -778
-101 -87 -279 -221 -293 -221 -24 0 -40 -76 -38 -180 3 -137 8 -144 101 -147
206 -5 642 -4 718 2 161 12 167 14 168 73 4 420 -1 1323 -8 1336 -9 15 -10 15
-26 -2z"/>
<path d="M0 2418 l0 -498 28 0 c328 -3 557 1 565 9 10 10 13 154 4 169 -3 4
-98 7 -211 7 l-206 0 -1 33 c-2 118 -1 181 4 188 3 5 84 9 181 9 l175 0 -2 90
-2 90 -170 1 c-93 1 -174 2 -180 3 -8 1 -10 60 -5 201 0 13 28 15 203 13 l202
-2 1 89 c1 50 -2 91 -5 91 -3 1 -135 2 -293 3 l-288 2 0 -498z"/>
<path d="M5881 2885 c-9 -13 -7 -972 2 -981 9 -9 146 -11 160 -2 8 5 12 60 12
180 l0 173 68 1 c37 1 70 4 73 6 2 3 19 2 37 -1 18 -4 48 -4 67 -1 19 3 46 3
60 0 50 -13 58 2 55 92 -1 46 -3 85 -4 88 0 3 -80 5 -176 4 -96 0 -175 2 -176
5 -4 28 -3 245 1 252 3 5 95 10 205 11 l199 3 -1 75 c-1 41 -1 82 -2 90 -1 13
-40 15 -287 15 -180 0 -288 -4 -293 -10z"/>
<path d="M2290 2743 c-30 -8 -73 -25 -96 -38 -42 -25 -121 -111 -117 -126 2
-5 -1 -9 -6 -9 -5 0 -19 -33 -32 -72 -18 -56 -24 -95 -24 -163 1 -74 8 -150
15 -150 1 0 3 -8 5 -18 12 -64 82 -160 150 -207 86 -59 224 -72 320 -29 45 20
135 100 135 120 0 9 -98 122 -111 127 -4 2 -13 -6 -19 -17 -16 -31 -92 -71
-134 -71 -113 0 -187 96 -187 242 0 106 39 181 113 219 69 35 135 20 201 -46
24 -26 37 -33 37 -22 0 8 4 17 9 19 12 4 91 98 91 107 0 5 -18 28 -41 51 -77
79 -197 112 -309 83z"/>
<path d="M666 2732 c-4 -3 55 -107 72 -127 4 -5 18 -30 31 -55 12 -25 45 -83
72 -130 l50 -84 -20 -37 c-12 -20 -27 -47 -34 -60 -7 -13 -24 -42 -38 -64 -36
-60 -57 -97 -71 -127 -7 -16 -16 -28 -20 -28 -4 0 -8 -6 -8 -12 0 -7 -9 -24
-20 -38 -36 -46 -29 -51 77 -48 l98 3 57 105 c31 58 62 113 68 124 11 17 17 9
60 -70 26 -49 56 -105 67 -124 l20 -35 101 -3 101 -3 -25 47 c-14 26 -56 100
-93 163 -38 64 -80 138 -95 164 l-26 48 24 43 c14 24 36 62 50 85 14 22 26 43
26 46 0 2 15 28 33 57 19 29 37 60 40 68 4 8 16 29 26 45 32 49 28 51 -71 51
l-92 -1 -34 -60 c-19 -33 -48 -86 -65 -117 -17 -31 -34 -55 -38 -53 -4 3 -18
27 -32 54 -14 26 -37 68 -52 92 -14 24 -28 52 -32 62 -3 9 -8 18 -12 18 -15 4
-192 4 -195 1z"/>
<path d="M1420 2722 c-1 -9 -2 -194 -3 -410 l-2 -392 258 0 257 0 1 23 c6 136
5 147 -16 148 -11 0 -89 0 -172 1 l-153 0 0 79 0 79 73 1 c39 1 99 1 132 0 90
-1 90 -2 89 79 0 39 -4 73 -8 78 -4 4 -65 8 -134 8 -70 1 -133 2 -139 3 -14 1
-19 140 -5 142 4 1 79 3 166 3 l159 2 -1 59 c0 33 -1 72 -1 86 l-1 26 -250 1
c-228 1 -250 -1 -250 -16z"/>
<path d="M2752 2731 c-4 -3 -8 -128 -7 -277 1 -255 3 -275 25 -344 19 -60 33
-83 77 -127 29 -29 61 -53 71 -53 10 0 22 -4 28 -10 5 -5 38 -11 74 -14 143
-9 247 57 299 189 22 57 24 81 26 357 2 201 0 278 -9 281 -6 2 -45 3 -86 3
l-75 -1 0 -265 c-1 -251 -2 -268 -23 -310 -12 -25 -31 -51 -43 -59 -30 -18
-92 -16 -124 5 -55 36 -59 56 -62 334 -1 140 -2 264 -3 275 0 18 -7 20 -80 21
-43 0 -83 -2 -88 -5z"/>
<path d="M3439 2736 c-1 -1 -3 -40 -4 -88 l-2 -87 99 2 c92 2 98 1 99 -18 0
-11 2 -155 3 -320 2 -165 4 -302 4 -305 1 -3 39 -5 84 -4 l83 1 3 321 c2 298
4 322 20 323 9 0 54 1 100 1 l83 -1 -3 87 -3 87 -282 1 c-156 0 -284 0 -284 0z"/>
<path d="M4104 2728 c-6 -9 -5 -800 1 -806 2 -2 41 -4 87 -5 l83 0 1 394 c1
217 0 401 -2 410 -3 12 -20 15 -85 15 -44 0 -83 -4 -85 -8z"/>
<path d="M4355 2732 c-2 -2 0 -12 5 -21 10 -17 57 -154 65 -186 3 -11 23 -72
46 -135 22 -63 42 -122 44 -130 2 -8 4 -15 5 -15 0 0 24 -71 54 -158 29 -86
56 -160 59 -164 7 -6 166 -8 171 -2 2 2 30 85 64 184 33 99 95 280 136 402 42
122 76 223 76 225 0 3 -142 3 -166 -1 -6 0 -16 -20 -23 -43 -7 -24 -16 -52
-21 -63 -5 -11 -39 -113 -77 -227 -37 -114 -70 -204 -74 -200 -3 4 -21 54 -39
112 -18 58 -36 114 -40 125 -5 11 -14 38 -21 60 -6 22 -15 49 -20 60 -4 11
-19 56 -33 101 l-26 80 -91 0 c-49 0 -91 -2 -94 -4z"/>
<path d="M5163 2329 l0 -409 257 0 257 0 -1 86 -1 87 -167 -1 c-123 -1 -168 2
-169 11 -5 55 -3 139 3 143 5 3 71 6 147 6 l139 1 -1 78 c-1 44 -4 80 -7 80
-3 1 -68 3 -145 4 l-139 1 -1 72 c0 41 4 73 10 73 6 1 71 3 145 4 74 2 144 3
155 4 19 1 21 7 20 85 l0 83 -251 1 -251 0 0 -409z"/>
<path d="M6778 2714 c-144 -51 -233 -182 -251 -369 -6 -65 10 -180 32 -228 12
-25 21 -49 21 -52 0 -9 21 -34 73 -87 163 -166 433 -112 540 106 31 64 38 94
49 221 1 12 -10 100 -16 132 -3 12 -9 30 -14 40 -6 10 -10 20 -10 23 2 17 -47
92 -85 131 -69 68 -126 93 -222 95 -45 0 -96 -5 -117 -12z m172 -186 c44 -19
64 -41 89 -99 26 -59 31 -129 14 -203 -27 -120 -95 -168 -217 -155 -34 4 -104
83 -119 136 -41 140 19 303 123 331 43 11 65 9 110 -10z"/>
<path d="M8867 2715 c-124 -33 -196 -141 -184 -275 11 -127 64 -175 252 -229
103 -30 139 -74 101 -123 -39 -52 -188 -39 -277 23 -33 23 -39 17 -69 -75 -26
-79 -26 -80 60 -119 57 -25 96 -32 195 -32 120 0 203 43 247 129 26 50 30 70
29 138 0 67 -17 112 -57 151 -43 43 -89 63 -214 96 -58 16 -88 39 -94 74 -6
33 29 76 64 78 11 1 26 2 33 3 26 3 98 -14 139 -34 23 -11 45 -17 48 -13 11
13 50 124 50 142 0 17 -45 44 -105 63 -48 15 -166 17 -218 3z"/>
<path d="M7383 2710 c-17 -5 -18 -26 -18 -410 l0 -405 83 -1 c46 0 85 2 87 6
2 4 5 52 6 108 1 56 4 102 8 103 28 5 73 4 89 -2 10 -4 30 -29 44 -56 14 -26
39 -73 55 -103 l30 -55 91 0 c51 -1 92 1 92 4 0 2 -29 58 -65 123 -36 66 -65
121 -65 124 0 3 17 22 39 44 47 48 68 90 78 161 16 106 -18 232 -77 287 -35
32 -89 59 -134 67 -44 9 -316 12 -343 5z m339 -194 c43 -29 57 -113 27 -174
-23 -46 -54 -58 -144 -57 l-60 0 -3 126 -3 126 78 -1 c55 -2 86 -7 105 -20z"/>
<path d="M8085 2710 c-2 -3 -4 -34 -4 -70 -1 -36 -2 -72 -2 -80 0 -8 0 -62 0
-120 1 -58 1 -112 0 -120 0 -15 0 -158 0 -195 0 -11 1 -67 2 -125 l1 -105 256
0 257 0 1 75 c0 41 -2 81 -4 88 -3 9 -28 12 -86 11 -44 0 -119 0 -166 0 l-85
1 0 78 1 77 94 2 c52 1 118 2 145 2 l50 1 1 80 0 80 -31 1 c-16 0 -81 2 -144
2 l-115 2 -1 73 c0 43 4 72 10 73 5 0 79 1 163 1 135 0 152 2 153 16 1 22 1
134 0 147 -1 10 -490 15 -496 5z"/>
<path d="M9264 2712 c-19 -3 -21 -9 -20 -82 1 -43 4 -82 8 -86 5 -4 49 -8 100
-8 l93 -1 -1 -317 c0 -175 3 -318 6 -319 3 -1 42 -2 88 -3 l82 -1 0 321 0 322
88 0 c48 0 93 1 100 1 8 1 12 25 12 86 0 47 -3 85 -7 86 -25 2 -532 3 -549 1z"/>
</g>
</svg>
